<svg width="64" height="64" viewBox="0 0 64 64" fill="none" xmlns="http://www.w3.org/2000/svg">
<path d="M53.3334 26.6667C53.3334 39.9814 38.5627 53.848 33.6027 58.1307C33.1407 58.4781 32.5782 58.666 32.0001 58.666C31.422 58.666 30.8595 58.4781 30.3974 58.1307C25.4374 53.848 10.6667 39.9814 10.6667 26.6667C10.6667 21.0087 12.9144 15.5825 16.9151 11.5817C20.9159 7.58096 26.3421 5.33335 32.0001 5.33335C37.658 5.33335 43.0843 7.58096 47.085 11.5817C51.0858 15.5825 53.3334 21.0087 53.3334 26.6667Z" stroke="white" stroke-width="5.33333" stroke-linecap="round" stroke-linejoin="round"/>
<path d="M32 34.6667C36.4183 34.6667 40 31.085 40 26.6667C40 22.2484 36.4183 18.6667 32 18.6667C27.5817 18.6667 24 22.2484 24 26.6667C24 31.085 27.5817 34.6667 32 34.6667Z" stroke="white" stroke-width="5.33333" stroke-linecap="round" stroke-linejoin="round"/>
</svg>
