<svg width="56" height="56" viewBox="0 0 56 56" fill="none" xmlns="http://www.w3.org/2000/svg">
<path d="M9.33331 45.5V10.5C9.33331 8.95291 9.94789 7.46918 11.0419 6.37522C12.1358 5.28125 13.6195 4.66667 15.1666 4.66667H44.3333C44.9522 4.66667 45.5456 4.9125 45.9832 5.35009C46.4208 5.78767 46.6666 6.38117 46.6666 7.00001V49C46.6666 49.6188 46.4208 50.2123 45.9832 50.6499C45.5456 51.0875 44.9522 51.3333 44.3333 51.3333H15.1666C13.6195 51.3333 12.1358 50.7188 11.0419 49.6248C9.94789 48.5308 9.33331 47.0471 9.33331 45.5ZM9.33331 45.5C9.33331 43.9529 9.94789 42.4692 11.0419 41.3752C12.1358 40.2813 13.6195 39.6667 15.1666 39.6667H46.6666" stroke="white" stroke-width="3.5" stroke-linecap="round" stroke-linejoin="round"/>
</svg>
