<svg width="56" height="56" viewBox="0 0 56 56" fill="none" xmlns="http://www.w3.org/2000/svg">
<path d="M4.66663 22.1667C4.66667 19.5701 5.45434 17.0347 6.9256 14.8952C8.39686 12.7557 10.4825 11.1129 12.907 10.1836C15.3316 9.25432 17.981 9.08237 20.5053 9.69043C23.0296 10.2985 25.3101 11.658 27.0456 13.5893C27.1679 13.72 27.3156 13.8242 27.4798 13.8955C27.644 13.9667 27.821 14.0035 28 14.0035C28.1789 14.0035 28.356 13.9667 28.5201 13.8955C28.6843 13.8242 28.8321 13.72 28.9543 13.5893C30.6843 11.6454 32.9653 10.2745 35.4938 9.65907C38.0222 9.04361 40.6781 9.21281 43.108 10.1441C45.5379 11.0754 47.6265 12.7247 49.0959 14.8724C50.5653 17.0201 51.3457 19.5644 51.3333 22.1667C51.3333 27.51 47.8333 31.5 44.3333 35L31.5186 47.397C31.0839 47.8963 30.5478 48.2975 29.9461 48.5737C29.3443 48.8499 28.6907 48.995 28.0286 48.9992C27.3665 49.0034 26.7111 48.8666 26.106 48.598C25.5008 48.3294 24.9597 47.9351 24.5186 47.4413L11.6666 35C8.16663 31.5 4.66663 27.5333 4.66663 22.1667Z" stroke="white" stroke-width="3.5" stroke-linecap="round" stroke-linejoin="round"/>
</svg>
